# xmcd
#
# Track frame offsets:
# 183
# 9933
# 26458
# 37920
# 49720
# 59933
# 70920
# 84520
# 96970
# 108308
# 121120
# 134645
# 147920
# 159995
# 169945
# 179758
#
# Disc length: 2578 seconds
#
#
# Revision: 0
# Processed by: cddbd v1.5.1PL2 Copyright (c) Steve Scherf et al.
# Submitted via: FreeRIP 2.944 
#
DISCID=db0a1010
DTITLE=MINA - I Grandi Successi di Mina Vol.3
DYEAR=1900
DGENRE=Italian Pop
TTITLE0=Chihuahua
TTITLE1=Le Tue Mani
TTITLE2=Stringimi Forte I Polsi
TTITLE3=Il Tempo
TTITLE4=Vola Vola da Me
TTITLE5=Piangere un Po'
TTITLE6=Si Lo So
TTITLE7=Tu Senza di Me
TTITLE8=La Notte
TTITLE9=Johnny Kiss
TTITLE10=Il Disco Rotto
TTITLE11=Sentimentale
TTITLE12=Aiutatemi
TTITLE13=The Diary
TTITLE14=Oui Oui Oui
TTITLE15=Improvvisamente
EXTD=
EXTT0=
EXTT1=
EXTT2=
EXTT3=
EXTT4=
EXTT5=
EXTT6=
EXTT7=
EXTT8=
EXTT9=
EXTT10=
EXTT11=
EXTT12=
EXTT13=
EXTT14=
EXTT15=
PLAYORDER=
